<svg width="48" height="49" viewBox="0 0 48 49" fill="none" xmlns="http://www.w3.org/2000/svg">
<rect y="0.391602" width="48" height="48" rx="24" fill="#5E83F5"/>
<path d="M25.6667 22.1416V24.5583H27.8333C28 24.5583 28.0833 24.7249 28.0833 24.8916L27.75 26.4749C27.75 26.5583 27.5833 26.6416 27.5 26.6416H25.6667V32.7249H23.1667V26.7249H21.75C21.5833 26.7249 21.5 26.6416 21.5 26.4749V24.8916C21.5 24.7249 21.5833 24.6416 21.75 24.6416H23.1667V21.8916C23.1667 20.4749 24.25 19.3916 25.6667 19.3916H27.9167C28.0833 19.3916 28.1667 19.4749 28.1667 19.6416V21.6416C28.1667 21.8083 28.0833 21.8916 27.9167 21.8916H25.9167C25.75 21.8916 25.6667 21.9749 25.6667 22.1416Z" stroke="white" stroke-miterlimit="10" stroke-linecap="round"/>
<path d="M26.4998 32.7253H21.4998C17.3332 32.7253 15.6665 31.0586 15.6665 26.8919V21.8919C15.6665 17.7253 17.3332 16.0586 21.4998 16.0586H26.4998C30.6665 16.0586 32.3332 17.7253 32.3332 21.8919V26.8919C32.3332 31.0586 30.6665 32.7253 26.4998 32.7253Z" stroke="white" stroke-linecap="round" stroke-linejoin="round"/>
</svg>
