<svg width="48" height="49" viewBox="0 0 48 49" fill="none" xmlns="http://www.w3.org/2000/svg">
<rect y="0.391602" width="48" height="48" rx="24" fill="#5E83F5"/>
<path d="M27.8335 20.2249C27.8335 20.1365 27.8686 20.0517 27.9311 19.9892C27.9936 19.9267 28.0784 19.8916 28.1668 19.8916C28.2552 19.8916 28.34 19.9267 28.4025 19.9892C28.465 20.0517 28.5002 20.1365 28.5002 20.2249C28.5002 20.3133 28.465 20.3981 28.4025 20.4606C28.34 20.5231 28.2552 20.5583 28.1668 20.5583C28.0784 20.5583 27.9936 20.5231 27.9311 20.4606C27.8686 20.3981 27.8335 20.3133 27.8335 20.2249Z" fill="white" stroke="white"/>
<path fill-rule="evenodd" clip-rule="evenodd" d="M23.9998 20.4336C22.95 20.4336 21.9432 20.8506 21.2009 21.593C20.4585 22.3353 20.0415 23.3421 20.0415 24.3919C20.0415 25.4417 20.4585 26.4486 21.2009 27.1909C21.9432 27.9332 22.95 28.3503 23.9998 28.3503C25.0497 28.3503 26.0565 27.9332 26.7988 27.1909C27.5411 26.4486 27.9582 25.4417 27.9582 24.3919C27.9582 23.3421 27.5411 22.3353 26.7988 21.593C26.0565 20.8506 25.0497 20.4336 23.9998 20.4336ZM21.2915 24.3919C21.2915 23.6736 21.5768 22.9848 22.0848 22.4768C22.5927 21.9689 23.2815 21.6836 23.9998 21.6836C24.7181 21.6836 25.407 21.9689 25.9149 22.4768C26.4228 22.9848 26.7082 23.6736 26.7082 24.3919C26.7082 25.1102 26.4228 25.7991 25.9149 26.307C25.407 26.8149 24.7181 27.1003 23.9998 27.1003C23.2815 27.1003 22.5927 26.8149 22.0848 26.307C21.5768 25.7991 21.2915 25.1102 21.2915 24.3919Z" fill="white"/>
<path fill-rule="evenodd" clip-rule="evenodd" d="M28.3818 16.7529C25.4696 16.43 22.5307 16.43 19.6185 16.7529C17.9418 16.9404 16.5876 18.2612 16.391 19.9462C16.0455 22.9 16.0455 25.884 16.391 28.8379C16.5876 30.5229 17.941 31.8437 19.6185 32.0312C22.5307 32.3537 25.4696 32.3537 28.3818 32.0312C30.0585 31.8437 31.4126 30.5229 31.6093 28.8379C31.9549 25.8841 31.9549 22.9 31.6093 19.9462C31.4126 18.2612 30.0593 16.9404 28.3818 16.7529ZM19.7568 17.9945C22.577 17.6819 25.4232 17.6819 28.2435 17.9945C29.3518 18.1195 30.2393 18.9937 30.3685 20.092C30.7026 22.949 30.7026 25.8351 30.3685 28.692C30.3017 29.2296 30.0556 29.7289 29.67 30.1093C29.2844 30.4898 28.7818 30.7291 28.2435 30.7887C25.4232 31.1013 22.577 31.1013 19.7568 30.7887C19.2184 30.7291 18.7158 30.4898 18.3303 30.1093C17.9447 29.7289 17.6986 29.2296 17.6318 28.692C17.2977 25.8351 17.2977 22.949 17.6318 20.092C17.6986 19.5545 17.9447 19.0552 18.3303 18.6747C18.7158 18.2943 19.2184 18.0541 19.7568 17.9945Z" fill="white"/>
</svg>
