<svg width="18" height="20" viewBox="0 0 18 20" fill="none" xmlns="http://www.w3.org/2000/svg">
<path fill-rule="evenodd" clip-rule="evenodd" d="M15.709 6.79633C15.709 8.05226 16.041 8.79253 16.7715 9.64559C17.325 10.2741 17.502 11.0808 17.502 11.956C17.502 12.8302 17.2147 13.6601 16.6393 14.3339C15.8859 15.1417 14.8235 15.6573 13.7392 15.747C12.1679 15.8809 10.5956 15.9937 9.00245 15.9937C7.4083 15.9937 5.837 15.9263 4.26571 15.747C3.18041 15.6573 2.11797 15.1417 1.36562 14.3339C0.790173 13.6601 0.501953 12.8302 0.501953 11.956C0.501953 11.0808 0.679854 10.2741 1.23244 9.64559C1.98579 8.79253 2.29587 8.05226 2.29587 6.79633V6.3703C2.29587 4.68834 2.71528 3.58852 3.57895 2.51186C4.86302 0.941697 6.9213 0 8.95773 0H9.04717C11.1273 0 13.2522 0.987019 14.5144 2.62466C15.3333 3.67916 15.709 4.73265 15.709 6.3703V6.79633ZM6.07519 18.0609C6.07519 17.5573 6.53733 17.3267 6.96469 17.228C7.4646 17.1222 10.5108 17.1222 11.0107 17.228C11.4381 17.3267 11.9002 17.5573 11.9002 18.0609C11.8754 18.5403 11.5941 18.9653 11.2055 19.2352C10.7016 19.628 10.1103 19.8768 9.49208 19.9664C9.15019 20.0107 8.81427 20.0118 8.48431 19.9664C7.86513 19.8768 7.27378 19.628 6.77089 19.2342C6.3813 18.9653 6.10003 18.5403 6.07519 18.0609Z" fill="#5E83F5"/>
</svg>
