<svg width="48" height="49" viewBox="0 0 48 49" fill="none" xmlns="http://www.w3.org/2000/svg">
<rect y="0.391602" width="48" height="48" rx="24" fill="#5E83F5"/>
<mask id="path-2-inside-1_1987_17103" fill="white">
<path d="M30.5941 18.8267C30.7513 18.828 30.9051 18.8723 31.039 18.9547C31.1728 19.0372 31.2815 19.1547 31.3533 19.2945C31.4252 19.4343 31.4574 19.5911 31.4465 19.748C31.4357 19.9048 31.3821 20.0556 31.2916 20.1842L30.4233 21.4183C30.37 25.6567 28.9525 28.5342 26.21 29.9717C24.9031 30.6212 23.4591 30.9467 22 30.9208C20.1957 30.9623 18.4127 30.5241 16.8333 29.6508C16.727 29.5794 16.6449 29.4775 16.5978 29.3585C16.5506 29.2395 16.5406 29.109 16.5691 28.9842C16.5958 28.8575 16.6603 28.7419 16.754 28.6527C16.8477 28.5634 16.9663 28.5047 17.0941 28.4842C18.1552 28.336 19.2 28.0888 20.215 27.7458C15.6666 25.6417 16.6583 20.9117 17.0916 19.4592C17.1339 19.315 17.2133 19.1844 17.3219 19.0806C17.4306 18.9768 17.5646 18.9034 17.7106 18.8678C17.8566 18.8322 18.0094 18.8355 18.1536 18.8776C18.2979 18.9197 18.4285 18.999 18.5325 19.1075C19.8638 20.4794 21.6291 21.348 23.5283 21.5658C23.4946 21.0555 23.5735 20.5439 23.7594 20.0674C23.9453 19.5909 24.2337 19.1611 24.6041 18.8083C25.2459 18.1993 26.0977 17.8612 26.9825 17.8643C27.8672 17.8674 28.7167 18.2115 29.3541 18.825L30.5941 18.8267ZM17.7675 29.22C19.3191 29.9467 22.9558 30.7358 25.8233 29.2333C28.2858 27.9425 29.5533 25.29 29.5908 21.3492C29.5925 21.2189 29.6337 21.0921 29.7091 20.9858L30.61 19.7042L30.5758 19.66C30.1441 19.6542 29.7183 19.6483 29.2841 19.66C29.1148 19.6561 28.9528 19.5907 28.8283 19.4758C28.3486 18.9896 27.6973 18.7109 27.0143 18.6997C26.3313 18.6885 25.6712 18.9456 25.1758 19.4158C24.8576 19.7185 24.6197 20.0956 24.4837 20.5131C24.3477 20.9307 24.3177 21.3755 24.3966 21.8075C24.4111 21.888 24.4071 21.9707 24.3849 22.0494C24.3626 22.1281 24.3228 22.2007 24.2683 22.2617C24.2161 22.3232 24.1496 22.3709 24.0746 22.4007C23.9996 22.4305 23.9185 22.4414 23.8383 22.4325C21.5993 22.2763 19.497 21.2984 17.935 19.6867C17.3766 21.4183 16.6683 25.5983 21.1591 27.2408C21.2536 27.2748 21.3365 27.335 21.3979 27.4144C21.4593 27.4938 21.4968 27.5892 21.5058 27.6892C21.5159 27.7877 21.4978 27.887 21.4536 27.9756C21.4093 28.0641 21.3407 28.1382 21.2558 28.1892C20.1584 28.7243 18.9795 29.0727 17.7675 29.22Z"/>
</mask>
<path d="M30.5941 18.8267C30.7513 18.828 30.9051 18.8723 31.039 18.9547C31.1728 19.0372 31.2815 19.1547 31.3533 19.2945C31.4252 19.4343 31.4574 19.5911 31.4465 19.748C31.4357 19.9048 31.3821 20.0556 31.2916 20.1842L30.4233 21.4183C30.37 25.6567 28.9525 28.5342 26.21 29.9717C24.9031 30.6212 23.4591 30.9467 22 30.9208C20.1957 30.9623 18.4127 30.5241 16.8333 29.6508C16.727 29.5794 16.6449 29.4775 16.5978 29.3585C16.5506 29.2395 16.5406 29.109 16.5691 28.9842C16.5958 28.8575 16.6603 28.7419 16.754 28.6527C16.8477 28.5634 16.9663 28.5047 17.0941 28.4842C18.1552 28.336 19.2 28.0888 20.215 27.7458C15.6666 25.6417 16.6583 20.9117 17.0916 19.4592C17.1339 19.315 17.2133 19.1844 17.3219 19.0806C17.4306 18.9768 17.5646 18.9034 17.7106 18.8678C17.8566 18.8322 18.0094 18.8355 18.1536 18.8776C18.2979 18.9197 18.4285 18.999 18.5325 19.1075C19.8638 20.4794 21.6291 21.348 23.5283 21.5658C23.4946 21.0555 23.5735 20.5439 23.7594 20.0674C23.9453 19.5909 24.2337 19.1611 24.6041 18.8083C25.2459 18.1993 26.0977 17.8612 26.9825 17.8643C27.8672 17.8674 28.7167 18.2115 29.3541 18.825L30.5941 18.8267ZM17.7675 29.22C19.3191 29.9467 22.9558 30.7358 25.8233 29.2333C28.2858 27.9425 29.5533 25.29 29.5908 21.3492C29.5925 21.2189 29.6337 21.0921 29.7091 20.9858L30.61 19.7042L30.5758 19.66C30.1441 19.6542 29.7183 19.6483 29.2841 19.66C29.1148 19.6561 28.9528 19.5907 28.8283 19.4758C28.3486 18.9896 27.6973 18.7109 27.0143 18.6997C26.3313 18.6885 25.6712 18.9456 25.1758 19.4158C24.8576 19.7185 24.6197 20.0956 24.4837 20.5131C24.3477 20.9307 24.3177 21.3755 24.3966 21.8075C24.4111 21.888 24.4071 21.9707 24.3849 22.0494C24.3626 22.1281 24.3228 22.2007 24.2683 22.2617C24.2161 22.3232 24.1496 22.3709 24.0746 22.4007C23.9996 22.4305 23.9185 22.4414 23.8383 22.4325C21.5993 22.2763 19.497 21.2984 17.935 19.6867C17.3766 21.4183 16.6683 25.5983 21.1591 27.2408C21.2536 27.2748 21.3365 27.335 21.3979 27.4144C21.4593 27.4938 21.4968 27.5892 21.5058 27.6892C21.5159 27.7877 21.4978 27.887 21.4536 27.9756C21.4093 28.0641 21.3407 28.1382 21.2558 28.1892C20.1584 28.7243 18.9795 29.0727 17.7675 29.22Z" fill="black"/>
<path d="M30.5941 18.8267L30.6025 17.8267L30.5955 17.8267L30.5941 18.8267ZM31.2916 20.1842L30.4738 19.6087L30.4738 19.6088L31.2916 20.1842ZM30.4233 21.4183L29.6054 20.8429L29.4273 21.0962L29.4234 21.4058L30.4233 21.4183ZM26.21 29.9717L26.655 30.8672L26.6647 30.8624L26.6742 30.8574L26.21 29.9717ZM22 30.9208L22.0177 29.921L21.9973 29.9206L21.977 29.9211L22 30.9208ZM16.8333 29.6508L16.2755 30.4808L16.3115 30.505L16.3494 30.526L16.8333 29.6508ZM16.5691 28.9842L17.544 29.2068L17.5459 29.1986L17.5476 29.1903L16.5691 28.9842ZM17.0941 28.4842L16.9558 27.4938L16.9458 27.4952L16.9359 27.4968L17.0941 28.4842ZM20.215 27.7458L20.5351 28.6932L22.9099 27.8908L20.6348 26.8383L20.215 27.7458ZM17.0916 19.4592L18.0499 19.7451L18.0513 19.7403L17.0916 19.4592ZM18.5325 19.1075L17.8102 19.7992L17.8148 19.8039L18.5325 19.1075ZM23.5283 21.5658L23.4143 22.5593L24.6051 22.6959L24.5261 21.5L23.5283 21.5658ZM24.6041 18.8083L23.9157 18.083L23.9146 18.0841L24.6041 18.8083ZM29.3541 18.825L28.6607 19.5455L28.9505 19.8245L29.3528 19.825L29.3541 18.825ZM17.7675 29.22L17.6468 28.2273L14.1876 28.6478L17.3433 30.1256L17.7675 29.22ZM25.8233 29.2333L26.2874 30.1191L26.2876 30.119L25.8233 29.2333ZM29.5908 21.3492L28.5909 21.3363L28.5908 21.3397L29.5908 21.3492ZM29.7091 20.9858L30.5249 21.5643L30.5273 21.5609L29.7091 20.9858ZM30.61 19.7042L31.4281 20.2792L31.8522 19.6757L31.4009 19.0923L30.61 19.7042ZM30.5758 19.66L31.3668 19.0482L31.0716 18.6666L30.5893 18.6601L30.5758 19.66ZM29.2841 19.66L29.2612 20.6597L29.2861 20.6603L29.311 20.6596L29.2841 19.66ZM28.8283 19.4758L28.1164 20.1781L28.133 20.1949L28.1503 20.2109L28.8283 19.4758ZM25.1758 19.4158L24.4874 18.6905L24.4866 18.6912L25.1758 19.4158ZM24.3966 21.8075L25.3808 21.6301L25.3804 21.6279L24.3966 21.8075ZM24.2683 22.2617L23.5225 21.5954L23.514 21.605L23.5058 21.6147L24.2683 22.2617ZM23.8383 22.4325L23.9489 21.4386L23.9284 21.4364L23.9079 21.4349L23.8383 22.4325ZM17.935 19.6867L18.653 18.9907L17.4942 17.795L16.9832 19.3798L17.935 19.6867ZM21.1591 27.2408L20.8156 28.18L20.8214 28.1821L21.1591 27.2408ZM21.5058 27.6892L20.5098 27.7792L20.5111 27.7918L21.5058 27.6892ZM21.2558 28.1892L21.6941 29.088L21.7332 29.0689L21.7705 29.0465L21.2558 28.1892ZM30.5858 19.8266C30.5605 19.8264 30.5358 19.8193 30.5144 19.8061L31.5636 18.1034C31.2744 17.9252 30.9421 17.8295 30.6025 17.8267L30.5858 19.8266ZM30.5144 19.8061C30.4929 19.7928 30.4754 19.774 30.4639 19.7515L32.2428 18.8375C32.0876 18.5354 31.8527 18.2816 31.5636 18.1034L30.5144 19.8061ZM30.4639 19.7515C30.4524 19.7291 30.4472 19.7039 30.4489 19.6787L32.4441 19.8172C32.4676 19.4784 32.398 19.1396 32.2428 18.8375L30.4639 19.7515ZM30.4489 19.6787C30.4507 19.6536 30.4593 19.6293 30.4738 19.6087L32.1094 20.7596C32.3049 20.4819 32.4206 20.156 32.4441 19.8172L30.4489 19.6787ZM30.4738 19.6088L29.6054 20.8429L31.2411 21.9938L32.1095 20.7596L30.4738 19.6088ZM29.4234 21.4058C29.3727 25.4314 28.0456 27.8805 25.7457 29.086L26.6742 30.8574C29.8593 29.1879 31.3672 25.8819 31.4232 21.4309L29.4234 21.4058ZM25.7649 29.0762C24.6017 29.6543 23.3164 29.944 22.0177 29.921L21.9822 31.9207C23.6018 31.9494 25.2045 31.5881 26.655 30.8672L25.7649 29.0762ZM21.977 29.9211C20.3497 29.9585 18.7416 29.5632 17.3171 28.7757L16.3494 30.526C18.0838 31.4849 20.0417 31.9661 22.0229 31.9206L21.977 29.9211ZM17.3911 28.8209C17.4526 28.8622 17.5001 28.9212 17.5274 28.9901L15.6681 29.7269C15.7897 30.0338 16.0015 30.2967 16.2755 30.4808L17.3911 28.8209ZM17.5274 28.9901C17.5547 29.059 17.5605 29.1346 17.544 29.2068L15.5942 28.7615C15.5207 29.0834 15.5465 29.42 15.6681 29.7269L17.5274 28.9901ZM17.5476 29.1903C17.5326 29.2616 17.4964 29.3266 17.4436 29.3768L16.0643 27.9285C15.8242 28.1573 15.659 28.4535 15.5906 28.778L17.5476 29.1903ZM17.4436 29.3768C17.3909 29.427 17.3242 29.4601 17.2523 29.4716L16.9359 27.4968C16.6084 27.5492 16.3045 27.6998 16.0643 27.9285L17.4436 29.3768ZM17.2324 29.4746C18.3553 29.3177 19.461 29.0562 20.5351 28.6932L19.8948 26.7985C18.939 27.1214 17.955 27.3542 16.9558 27.4938L17.2324 29.4746ZM20.6348 26.8383C18.7061 25.946 17.9933 24.5478 17.772 23.1965C17.5411 21.7866 17.8513 20.4107 18.0499 19.7451L16.1334 19.1733C15.8986 19.9602 15.4963 21.6755 15.7983 23.5197C16.1099 25.4226 17.1755 27.4415 19.7951 28.6534L20.6348 26.8383ZM18.0513 19.7403C18.0442 19.7644 18.0309 19.7863 18.0128 19.8037L16.6311 18.3576C16.3957 18.5825 16.2235 18.8655 16.132 19.178L18.0513 19.7403ZM18.0128 19.8037C17.9946 19.821 17.9721 19.8333 17.9477 19.8393L17.4735 17.8963C17.1571 17.9735 16.8666 18.1326 16.6311 18.3576L18.0128 19.8037ZM17.9477 19.8393C17.9233 19.8452 17.8977 19.8447 17.8736 19.8376L18.4337 17.9176C18.121 17.8264 17.7899 17.8191 17.4735 17.8963L17.9477 19.8393ZM17.8736 19.8376C17.8495 19.8306 17.8276 19.8173 17.8102 19.7992L19.2547 18.4159C19.0294 18.1807 18.7463 18.0088 18.4337 17.9176L17.8736 19.8376ZM17.8148 19.8039C19.3071 21.3416 21.2856 22.3152 23.4143 22.5593L23.6422 20.5724C21.9725 20.3808 20.4206 19.6172 19.2501 18.4111L17.8148 19.8039ZM24.5261 21.5C24.5021 21.1358 24.5584 20.7708 24.691 20.4309L22.8278 19.7039C22.5886 20.317 22.4871 20.9751 22.5305 21.6317L24.5261 21.5ZM24.691 20.4309C24.8236 20.0909 25.0294 19.7842 25.2937 19.5326L23.9146 18.0841C23.438 18.5379 23.067 19.0909 22.8278 19.7039L24.691 20.4309ZM25.2925 19.5337C25.7476 19.1018 26.3516 18.8621 26.979 18.8643L26.986 16.8643C25.8439 16.8603 24.7442 17.2968 23.9157 18.083L25.2925 19.5337ZM26.979 18.8643C27.6063 18.8665 28.2087 19.1105 28.6607 19.5455L30.0476 18.1045C29.2247 17.3125 28.1281 16.8683 26.986 16.8643L26.979 18.8643ZM29.3528 19.825L30.5928 19.8267L30.5955 17.8267L29.3555 17.825L29.3528 19.825ZM17.3433 30.1256C18.2378 30.5445 19.6564 30.952 21.2335 31.0603C22.813 31.1687 24.6395 30.9826 26.2874 30.1191L25.3592 28.3476C24.1396 28.9866 22.714 29.1572 21.3704 29.065C20.0243 28.9726 18.8488 28.6222 18.1916 28.3144L17.3433 30.1256ZM26.2876 30.119C29.2057 28.5894 30.5514 25.4945 30.5907 21.3587L28.5908 21.3397C28.5552 25.0855 27.3659 27.2957 25.359 28.3477L26.2876 30.119ZM30.5907 21.3621C30.5898 21.4346 30.5668 21.5051 30.5249 21.5643L28.8934 20.4074C28.7007 20.6792 28.5952 21.0031 28.5909 21.3363L30.5907 21.3621ZM30.5273 21.5609L31.4281 20.2792L29.7918 19.1291L28.891 20.4108L30.5273 21.5609ZM31.4009 19.0923L31.3668 19.0482L29.7848 20.2719L29.819 20.316L31.4009 19.0923ZM30.5893 18.6601C30.161 18.6543 29.715 18.6481 29.2573 18.6604L29.311 20.6596C29.7216 20.6486 30.1273 20.654 30.5623 20.6599L30.5893 18.6601ZM29.307 18.6603C29.381 18.662 29.4519 18.6906 29.5063 18.7408L28.1503 20.2109C28.4537 20.4907 28.8486 20.6503 29.2612 20.6597L29.307 18.6603ZM29.5402 18.7735C28.8765 18.1009 27.9755 17.7153 27.0307 17.6998L26.9979 19.6995C27.419 19.7065 27.8206 19.8783 28.1164 20.1781L29.5402 18.7735ZM27.0307 17.6998C26.0859 17.6843 25.1727 18.04 24.4874 18.6905L25.8642 20.1411C26.1697 19.8512 26.5767 19.6926 26.9979 19.6995L27.0307 17.6998ZM24.4866 18.6912C24.0481 19.1083 23.7203 19.628 23.5329 20.2034L25.4345 20.8229C25.5191 20.5632 25.667 20.3287 25.8649 20.1405L24.4866 18.6912ZM23.5329 20.2034C23.3454 20.7788 23.3042 21.3918 23.4129 21.9871L25.3804 21.6279C25.3313 21.3592 25.3499 21.0826 25.4345 20.8229L23.5329 20.2034ZM23.4125 21.9849C23.4 21.9159 23.4035 21.845 23.4226 21.7775L25.3472 22.3213C25.4107 22.0965 25.4222 21.8601 25.3808 21.6301L23.4125 21.9849ZM23.4226 21.7775C23.4416 21.71 23.4758 21.6477 23.5225 21.5954L25.014 22.9279C25.1697 22.7536 25.2837 22.5462 25.3472 22.3213L23.4226 21.7775ZM23.5058 21.6147C23.5596 21.5513 23.6281 21.5021 23.7054 21.4714L24.4438 23.3301C24.671 23.2398 24.8726 23.0951 25.0308 22.9087L23.5058 21.6147ZM23.7054 21.4714C23.7826 21.4407 23.8663 21.4294 23.9489 21.4386L23.7277 23.4264C23.9707 23.4534 24.2166 23.4203 24.4438 23.3301L23.7054 21.4714ZM23.9079 21.4349C21.9149 21.2959 20.0435 20.4254 18.653 18.9907L17.2169 20.3826C18.9504 22.1714 21.2837 23.2567 23.7687 23.4301L23.9079 21.4349ZM16.9832 19.3798C16.6796 20.3213 16.3087 21.9944 16.6758 23.7068C17.0599 25.4981 18.2366 27.2367 20.8156 28.18L21.5026 26.3017C19.5908 25.6024 18.8763 24.4298 18.6314 23.2876C18.3696 22.0665 18.6319 20.7837 18.8867 19.9935L16.9832 19.3798ZM20.8214 28.1821C20.7365 28.1516 20.662 28.0975 20.6068 28.0261L22.189 26.8027C22.0109 26.5725 21.7708 26.3979 21.4968 26.2996L20.8214 28.1821ZM20.6068 28.0261C20.5516 27.9547 20.518 27.869 20.5098 27.7792L22.5017 27.5992C22.4755 27.3093 22.367 27.033 22.189 26.8027L20.6068 28.0261ZM20.5111 27.7918C20.5017 27.7012 20.5184 27.6098 20.5591 27.5283L22.348 28.4228C22.4773 28.1642 22.5302 27.8741 22.5005 27.5865L20.5111 27.7918ZM20.5591 27.5283C20.5999 27.4469 20.663 27.3787 20.7411 27.3318L21.7705 29.0465C22.0184 28.8977 22.2187 28.6814 22.348 28.4228L20.5591 27.5283ZM20.8175 27.2903C19.82 27.7768 18.7484 28.0934 17.6468 28.2273L17.8881 30.2127C19.2105 30.052 20.4968 29.6719 21.6941 29.088L20.8175 27.2903Z" fill="white" mask="url(#path-2-inside-1_1987_17103)"/>
</svg>
