<svg width="48" height="49" viewBox="0 0 48 49" fill="none" xmlns="http://www.w3.org/2000/svg">
<rect y="0.391602" width="48" height="48" rx="24" fill="#5E83F5"/>
<path d="M19.7498 31.5586C20.9998 32.3086 22.4998 32.7253 23.9998 32.7253C28.5832 32.7253 32.3332 28.9753 32.3332 24.3919C32.3332 19.8086 28.5832 16.0586 23.9998 16.0586C19.4165 16.0586 15.6665 19.8086 15.6665 24.3919C15.6665 25.8919 16.0832 27.3086 16.7498 28.5586L16.1069 31.0313C15.9122 31.7802 16.6054 32.457 17.3495 32.2444L19.7498 31.5586Z" stroke="white" stroke-miterlimit="10" stroke-linecap="round" stroke-linejoin="round"/>
<path d="M27.75 26.7654C27.75 26.9004 27.72 27.0391 27.6561 27.1741C27.5923 27.3091 27.5096 27.4366 27.4007 27.5566C27.2167 27.7591 27.0139 27.9054 26.7848 27.9991C26.5595 28.0929 26.3153 28.1416 26.0525 28.1416C25.6694 28.1416 25.26 28.0516 24.8281 27.8679C24.3962 27.6841 23.9643 27.4366 23.5362 27.1254C23.1043 26.8104 22.6949 26.4616 22.3043 26.0754C21.9175 25.6854 21.5682 25.2766 21.2565 24.8491C20.9485 24.4216 20.7007 23.9941 20.5204 23.5704C20.3401 23.1429 20.25 22.7341 20.25 22.3441C20.25 22.0891 20.2951 21.8454 20.3852 21.6204C20.4753 21.3916 20.6181 21.1816 20.8171 20.9941C21.0575 20.7579 21.3204 20.6416 21.5983 20.6416C21.7034 20.6416 21.8086 20.6641 21.9025 20.7091C22.0001 20.7541 22.0865 20.8216 22.1541 20.9191L23.0254 22.1454C23.093 22.2391 23.1418 22.3254 23.1756 22.4079C23.2094 22.4866 23.2282 22.5654 23.2282 22.6366C23.2282 22.7266 23.2019 22.8166 23.1493 22.9029C23.1005 22.9891 23.0292 23.0791 22.939 23.1691L22.6536 23.4654C22.6123 23.5066 22.5935 23.5554 22.5935 23.6154C22.5935 23.6454 22.5973 23.6716 22.6048 23.7016C22.616 23.7316 22.6273 23.7541 22.6348 23.7766C22.7024 23.9004 22.8189 24.0616 22.9841 24.2566C23.1531 24.4516 23.3334 24.6504 23.5287 24.8491C23.7315 25.0479 23.9268 25.2316 24.1258 25.4004C24.3211 25.5654 24.4826 25.6779 24.6103 25.7454C24.6291 25.7529 24.6516 25.7641 24.6779 25.7754C24.7079 25.7866 24.738 25.7904 24.7718 25.7904C24.8356 25.7904 24.8845 25.7679 24.9258 25.7266L25.2112 25.4454C25.3051 25.3516 25.3952 25.2804 25.4816 25.2354C25.568 25.1829 25.6544 25.1566 25.7482 25.1566C25.8196 25.1566 25.8947 25.1716 25.9773 25.2054C26.06 25.2391 26.1463 25.2879 26.2402 25.3516L27.4834 26.2329C27.581 26.3004 27.6486 26.3791 27.6899 26.4729C27.7275 26.5666 27.75 26.6604 27.75 26.7654Z" stroke="white" stroke-miterlimit="10"/>
</svg>
